<?xml version="1.0" standalone="no"?>
<!DOCTYPE svg PUBLIC "-//W3C//DTD SVG 20010904//EN"
 "http://www.w3.org/TR/2001/REC-SVG-20010904/DTD/svg10.dtd">
<svg version="1.0" xmlns="http://www.w3.org/2000/svg"
 width="300.000000pt" height="147.000000pt" viewBox="0 0 300.000000 147.000000"
 preserveAspectRatio="xMidYMid meet">
<metadata>
Created by potrace 1.10, written by Peter Selinger 2001-2011
</metadata>
<g transform="translate(0.000000,147.000000) scale(0.100000,-0.100000)"
fill="#3cc89e" stroke="none">
<path d="M130 1275 c-1 0 -2 -185 -3 -411 l-2 -411 298 1 297 1 0 407 0 407
-295 3 c-162 2 -295 3 -295 3z m552 -47 c4 -35 5 -68 1 -68 -2 0 -14 12 -27
27 -22 25 -25 26 -67 14 -36 -10 -54 -10 -99 2 -104 27 -213 3 -282 -61 l-48
-45 0 56 c0 94 -21 87 266 87 196 0 254 -3 256 -12z m-38 -151 c-1 -95 -3
-102 -22 -105 -16 -2 -26 7 -41 36 -26 51 -82 97 -136 112 -38 11 -49 10 -82
-6 -29 -14 -39 -26 -41 -47 -5 -41 15 -58 152 -127 139 -71 140 -72 178 -124
50 -70 32 -185 -37 -230 -73 -48 -169 -58 -255 -26 -70 26 -106 26 -122 0 -7
-11 -23 -20 -35 -20 -23 0 -23 2 -23 116 0 112 1 115 21 112 12 -2 27 -12 33
-23 46 -83 134 -145 206 -145 52 0 109 43 110 83 0 44 -34 72 -180 148 -143
73 -183 115 -183 190 0 123 152 190 324 142 59 -16 60 -16 80 4 12 11 28 19
38 16 14 -3 16 -19 15 -106z m-177 -3 c18 -9 57 -43 85 -76 55 -62 75 -67 110
-27 9 10 19 19 23 19 7 0 0 -128 -7 -136 -3 -2 -19 8 -35 23 -17 15 -66 46
-109 68 -43 22 -80 43 -82 48 -2 4 -10 7 -19 7 -24 0 -73 40 -73 60 0 33 52
39 107 14z m-129 -265 c133 -66 162 -87 162 -118 0 -38 -17 -51 -68 -51 -58 0
-99 26 -151 95 -43 57 -61 66 -103 50 -16 -6 -18 1 -18 76 l0 83 45 -46 c27
-27 82 -63 133 -89z m352 -263 c0 -34 -4 -46 -17 -50 -23 -6 -472 -6 -495 1
-10 2 -18 11 -18 20 0 11 4 13 13 6 14 -12 42 -9 74 8 19 10 36 10 86 -1 103
-23 198 -22 254 4 26 13 54 30 62 39 25 31 41 20 41 -27z"/>
<path d="M1564 1071 c-9 -23 -38 -61 -66 -86 -49 -44 -55 -65 -17 -65 20 0 20
-6 18 -152 -1 -84 2 -160 5 -169 16 -38 106 -60 161 -39 33 13 85 69 85 92 0
25 -27 23 -35 -3 -10 -30 -49 -45 -79 -29 -32 17 -36 34 -36 183 l0 127 71 -6
71 -7 -4 28 c-3 29 -3 29 -72 26 l-68 -2 3 67 c5 81 -12 96 -37 35z m36 -121
c0 -9 -5 -21 -11 -27 -6 -6 -10 -65 -11 -146 0 -132 1 -136 26 -163 14 -16 24
-30 22 -32 -9 -8 -85 20 -90 34 -3 9 -6 76 -6 150 0 86 -4 141 -12 153 -10 16
-7 25 17 56 l28 38 18 -24 c10 -13 19 -31 19 -39z"/>
<path d="M985 979 c-82 -19 -130 -92 -81 -124 22 -14 29 -15 53 -3 22 11 28
19 26 43 -3 41 13 55 66 55 61 -1 76 -15 76 -70 l0 -45 -75 -25 c-150 -50
-190 -82 -190 -154 1 -88 83 -131 170 -88 71 35 109 67 116 96 8 36 7 116 -1
125 -12 12 -25 -26 -24 -69 0 -25 0 -50 0 -56 -1 -5 -23 -18 -50 -28 -55 -19
-81 -13 -102 25 -25 47 5 81 102 120 61 23 78 42 79 84 0 40 10 75 21 75 22 0
32 -53 35 -178 1 -83 7 -138 14 -147 29 -35 -33 -44 -70 -10 -20 18 -20 18
-20 -8 0 -48 62 -61 128 -28 50 25 73 52 62 71 -7 12 -13 10 -35 -10 -42 -40
-49 -19 -46 142 l2 143 -29 28 c-45 44 -132 57 -227 36z m-43 -75 c-3 -17 -8
-22 -15 -15 -7 7 -6 15 3 26 17 20 18 19 12 -11z m4 -218 c1 -36 7 -50 30 -70
26 -22 27 -25 11 -31 -68 -27 -125 76 -71 129 24 24 29 20 30 -28z"/>
<path d="M1873 954 c-4 -10 -2 -19 4 -21 28 -10 49 -42 132 -209 l90 -181 -27
-54 c-31 -63 -52 -70 -106 -40 -20 12 -45 21 -55 21 -23 0 -51 -31 -51 -58 0
-47 92 -68 165 -38 32 14 95 86 95 111 0 6 9 30 20 53 11 22 20 45 20 50 0 4
9 27 20 50 11 22 20 46 20 52 0 5 4 18 9 28 5 9 13 28 19 42 51 131 74 170 99
170 8 0 13 7 11 17 -5 24 -151 24 -156 0 -3 -13 4 -17 27 -17 17 0 31 -4 31
-9 0 -5 -15 -46 -34 -91 -19 -45 -38 -95 -41 -111 -4 -17 -13 -29 -22 -29 -13
0 -13 -3 -3 -15 10 -12 10 -24 1 -55 -6 -22 -15 -40 -19 -40 -9 0 -162 300
-162 318 0 6 -4 12 -10 12 -5 0 -10 5 -10 10 0 6 17 9 37 7 33 -2 38 -6 44
-34 5 -28 24 -73 72 -170 5 -13 14 -23 19 -23 16 0 7 34 -32 117 -22 47 -40
92 -40 99 0 9 11 14 31 14 24 0 30 4 27 18 -2 10 -12 16 -23 15 -46 -6 -155
-4 -174 2 -15 4 -23 1 -28 -11z m100 -538 l39 -13 -32 -7 c-42 -8 -52 -8 -69
3 -15 10 -7 31 12 31 7 0 29 -6 50 -14z"/>
<path d="M2525 951 c-66 -16 -95 -45 -95 -96 0 -31 40 -51 71 -35 19 11 21 15
23 60 2 46 74 65 119 30 21 -16 25 -27 23 -62 -2 -40 -5 -44 -42 -56 -191 -66
-224 -90 -224 -165 1 -103 110 -138 209 -67 50 36 61 37 61 5 0 -31 29 -47 75
-41 41 5 101 40 115 66 16 29 -8 36 -35 10 -46 -44 -53 -26 -48 133 4 122 3
148 -11 169 -30 45 -153 70 -241 49z m196 -50 c22 -18 24 -27 26 -128 1 -59 2
-127 2 -150 1 -31 5 -43 16 -43 15 0 22 -19 8 -21 -54 -6 -66 -3 -84 20 -16
20 -17 27 -7 45 14 23 13 136 -1 136 -11 0 -21 -66 -15 -99 5 -23 0 -29 -40
-49 -26 -12 -53 -22 -62 -22 -20 0 -64 48 -64 71 0 30 54 73 118 93 57 18 62
22 68 52 3 19 4 52 2 74 -4 45 0 48 33 21z m-231 -26 c0 -14 -4 -25 -10 -25
-11 0 -14 33 -3 43 11 11 13 8 13 -18z m21 -285 l31 -30 -40 0 c-22 0 -45 6
-52 15 -16 20 -20 65 -6 89 21 38 31 37 34 -4 2 -28 12 -48 33 -70z"/>
<path d="M120 265 c0 -8 9 -15 20 -15 18 0 20 -7 20 -60 0 -53 2 -60 20 -60
18 0 20 7 20 60 0 53 2 60 20 60 11 0 20 7 20 15 0 12 -13 15 -60 15 -47 0
-60 -3 -60 -15z"/>
<path d="M993 268 c-4 -7 -6 -21 -5 -30 2 -9 -6 -26 -18 -38 -19 -19 -20 -24
-7 -43 12 -18 25 -22 68 -23 30 -1 62 -5 72 -9 12 -5 17 -3 17 8 0 8 -7 18
-16 21 -16 6 -16 8 0 24 20 23 21 42 1 42 -8 0 -15 -6 -15 -14 0 -20 -13 -27
-30 -16 -12 7 -12 13 -1 34 8 13 11 32 8 40 -8 19 -62 22 -74 4z m52 -17 c7
-12 -12 -24 -25 -16 -11 7 -4 25 10 25 5 0 11 -4 15 -9z m-9 -65 c19 -20 18
-36 -3 -36 -28 0 -47 16 -40 34 8 20 24 20 43 2z"/>
<path d="M1200 278 c0 -2 -2 -36 -3 -75 -2 -54 1 -73 10 -73 9 0 13 16 13 50
0 28 4 50 8 50 5 0 15 -23 22 -50 15 -56 31 -60 41 -11 4 18 15 41 24 50 16
15 17 13 10 -37 -6 -48 -5 -54 10 -50 15 2 18 15 19 73 1 67 0 70 -23 70 -18
0 -26 -8 -35 -34 -13 -40 -36 -53 -36 -21 0 33 -18 60 -40 60 -11 0 -20 -1
-20 -2z"/>
<path d="M1911 205 c-1 -69 0 -75 19 -75 19 0 20 5 17 48 -2 27 -7 54 -11 60
-3 6 -2 13 4 17 16 10 11 25 -9 25 -16 0 -19 -9 -20 -75z"/>
<path d="M2221 251 c-26 -37 -26 -61 0 -95 26 -33 82 -37 101 -6 16 25 25 25
33 0 5 -16 15 -20 46 -20 33 0 39 3 39 20 0 17 -3 19 -19 10 -32 -17 -41 -12
-41 25 0 25 4 35 16 35 10 0 14 -6 11 -14 -3 -8 2 -16 14 -19 25 -7 36 17 19
38 -7 8 -26 15 -42 15 -22 0 -33 -7 -46 -30 -9 -16 -25 -30 -34 -30 -9 0 -21
-8 -27 -17 -8 -14 -14 -16 -28 -7 -25 15 -29 76 -7 95 14 12 19 10 34 -9 22
-27 40 -29 40 -4 0 27 -20 42 -56 42 -25 0 -38 -7 -53 -29z"/>
<path d="M1516 253 c-10 -37 1 -106 20 -120 25 -18 42 0 20 22 -18 19 -20 29
-7 54 12 22 3 61 -14 61 -8 0 -16 -8 -19 -17z"/>
<path d="M1977 253 c-7 -27 -3 -96 6 -110 10 -15 47 -17 47 -3 0 6 -4 10 -10
10 -14 0 -12 64 2 78 9 9 9 12 0 12 -7 0 -12 7 -12 15 0 21 -28 19 -33 -2z"/>
<path d="M2597 248 c-4 -12 -2 -27 4 -34 5 -7 7 -23 4 -37 -7 -28 17 -59 40
-51 19 8 19 20 0 28 -17 6 -20 47 -4 63 8 8 8 17 0 32 -15 27 -37 27 -44 -1z"/>
<path d="M811 241 c-14 -4 -26 -12 -29 -19 -3 -10 5 -12 32 -7 45 9 48 -7 4
-20 -26 -8 -33 -15 -33 -35 0 -23 4 -25 48 -27 l48 -2 -3 51 c-3 56 -20 70
-67 59z m39 -65 c0 -19 -17 -29 -37 -22 -12 5 -13 9 -3 21 16 19 40 19 40 1z"/>
<path d="M1413 242 c-26 -4 -38 -28 -17 -36 8 -3 14 -1 14 4 0 6 9 10 20 10
31 0 24 -15 -12 -25 -26 -8 -33 -15 -33 -35 0 -23 4 -25 53 -28 l52 -3 -4 45
c-3 25 -7 50 -10 55 -7 11 -36 17 -63 13z m37 -72 c0 -13 -7 -20 -20 -20 -23
0 -26 10 -8 28 18 18 28 15 28 -8z"/>
<path d="M240 184 c0 -48 2 -55 18 -52 11 3 16 12 14 27 -1 13 5 34 13 47 20
32 19 34 -15 34 -30 0 -30 0 -30 -56z"/>
<path d="M327 233 c-16 -16 -4 -23 28 -17 47 9 45 -10 -2 -22 -31 -7 -38 -13
-38 -34 0 -23 4 -25 53 -27 l52 -1 0 38 c0 59 -7 70 -49 70 -21 0 -41 -3 -44
-7z m63 -63 c0 -13 -7 -20 -18 -20 -26 0 -34 11 -21 27 17 20 39 16 39 -7z"/>
<path d="M452 188 l3 -53 48 -3 47 -3 0 55 c0 50 -2 56 -21 56 -18 0 -20 -4
-15 -32 7 -39 -6 -63 -28 -55 -13 5 -15 15 -10 47 5 33 4 40 -10 40 -14 0 -17
-9 -14 -52z"/>
<path d="M579 237 c0 -1 -2 -26 -3 -54 -3 -46 0 -53 15 -53 16 0 19 7 17 40
-2 46 4 55 28 46 13 -5 15 -14 10 -46 -5 -35 -4 -40 13 -40 16 0 20 8 23 42 2
31 8 44 21 46 14 3 17 -4 17 -43 0 -39 3 -46 17 -43 14 3 17 12 14 48 -1 25
-5 48 -7 51 -3 5 -163 11 -165 6z"/>
<path d="M1588 215 c-8 -18 -9 -35 -2 -53 8 -22 16 -28 47 -30 27 -2 39 1 43
13 9 22 -2 30 -21 15 -8 -7 -22 -10 -30 -6 -22 8 -14 60 10 65 13 2 16 -1 12
-12 -3 -9 1 -18 9 -21 17 -6 29 17 20 39 -3 9 -19 15 -41 15 -28 0 -38 -5 -47
-25z"/>
<path d="M1710 185 c0 -42 3 -55 15 -55 10 0 15 10 15 32 0 19 9 41 22 55 l21
23 -36 0 -37 0 0 -55z"/>
<path d="M1790 216 c0 -13 -3 -38 -6 -55 -6 -27 -4 -31 14 -31 17 0 21 7 24
43 2 29 8 42 18 42 11 0 15 -11 13 -42 -1 -37 1 -43 18 -43 16 0 19 7 19 43 0
53 -13 67 -62 67 -33 0 -38 -3 -38 -24z"/>
<path d="M2040 228 c0 -7 7 -26 15 -42 20 -37 19 -56 -2 -72 -14 -10 -15 -15
-6 -25 9 -9 17 -6 37 14 14 14 26 33 26 42 0 9 9 34 20 55 20 40 20 40 0 40
-13 0 -22 -10 -29 -32 l-9 -33 -13 33 c-13 31 -39 45 -39 20z"/>
<path d="M2470 186 c0 -50 2 -56 21 -56 19 0 21 4 16 30 -8 36 0 60 19 60 15
0 17 -8 14 -57 -1 -25 3 -33 15 -33 13 0 16 9 13 53 l-3 52 -47 3 -48 3 0 -55z"/>
<path d="M2680 221 c-14 -27 -13 -54 3 -75 23 -31 102 -18 82 14 -5 8 -10 8
-21 -1 -22 -18 -43 -3 -42 30 1 24 6 31 21 31 12 0 17 -5 14 -14 -3 -8 2 -16
14 -19 25 -7 33 7 17 33 -17 27 -73 28 -88 1z"/>
<path d="M2800 195 c0 -25 0 -48 -1 -52 0 -5 7 -9 15 -11 12 -3 16 5 16 33 0
22 6 38 14 41 8 3 17 12 20 20 4 10 -3 14 -29 14 -35 0 -35 0 -35 -45z"/>
</g>
</svg>
